<?xml version="1.0" standalone="no"?>
<!DOCTYPE svg PUBLIC "-//W3C//DTD SVG 20010904//EN"
 "http://www.w3.org/TR/2001/REC-SVG-20010904/DTD/svg10.dtd">
<svg version="1.0" xmlns="http://www.w3.org/2000/svg"
 width="534.000000pt" height="153.000000pt" viewBox="0 0 534.000000 153.000000"
 preserveAspectRatio="xMidYMid meet">

<g transform="translate(0.000000,153.000000) scale(0.100000,-0.100000)"
fill="#000000" stroke="none">
<path d="M2122 1109 c-113 -22 -214 -99 -259 -197 -93 -201 -16 -430 175 -524
60 -30 75 -33 152 -32 102 1 178 26 241 82 l42 38 -42 33 -42 34 -15 -22 c-20
-28 -91 -67 -137 -75 -50 -9 -141 10 -188 40 -101 63 -148 225 -103 357 17 51
82 130 124 152 86 45 195 38 270 -16 l41 -30 39 29 40 29 -28 25 c-43 39 -77
57 -139 73 -62 16 -105 17 -171 4z"/>
<path d="M3130 735 l0 -365 50 0 50 0 0 160 0 161 57 -3 56 -3 91 -157 91
-158 57 0 c32 0 58 3 58 6 0 4 -43 75 -95 159 -52 84 -95 158 -95 164 0 6 8
11 18 11 10 0 39 13 64 29 141 89 106 306 -57 350 -22 6 -109 11 -192 11
l-153 0 0 -365z m337 255 c48 -29 62 -115 28 -170 -16 -26 -75 -40 -170 -40
l-95 0 0 115 0 115 103 0 c83 0 108 -4 134 -20z"/>
<path d="M4927 993 c-4 -3 -7 -35 -7 -69 l0 -63 -52 -3 -53 -3 -3 -37 -3 -38
55 0 54 0 4 -172 c3 -190 8 -206 64 -233 33 -15 101 -20 142 -9 18 5 22 13 22
44 l0 38 -50 -1 c-80 -3 -84 6 -88 183 l-4 150 71 0 71 0 0 40 0 40 -70 0 -70
0 0 70 0 70 -38 0 c-21 0 -42 -3 -45 -7z"/>
<path d="M830 951 c-23 -6 -22 -8 22 -34 36 -21 45 -31 41 -47 -5 -18 -14 -20
-113 -20 -104 0 -109 1 -115 23 -10 34 -27 67 -36 67 -5 0 -11 -15 -14 -32
l-6 -33 -67 0 c-94 -1 -236 -30 -309 -64 l-62 -29 6 -59 c3 -32 10 -64 16 -70
6 -8 35 -13 77 -13 l68 0 0 36 c0 106 137 149 193 61 14 -22 19 -43 15 -69 -2
-21 -3 -38 -3 -39 12 -5 456 -9 494 -4 l52 6 -6 33 c-17 103 115 163 183 83
21 -25 25 -39 22 -74 -2 -23 1 -44 7 -46 10 -4 143 9 180 18 15 3 21 14 23 46
3 49 -7 63 -68 94 -64 33 -146 52 -275 65 -104 11 -115 15 -196 61 -48 27 -90
49 -95 48 -5 -1 -20 -4 -34 -8z"/>
<path d="M2665 850 c-27 -11 -59 -27 -69 -35 -19 -15 -19 -15 4 -40 29 -31 34
-31 73 -3 25 18 45 23 91 22 54 -1 62 -4 88 -33 17 -19 28 -43 28 -60 l0 -28
-93 -5 c-158 -8 -228 -54 -235 -156 -4 -52 -1 -61 23 -90 37 -44 75 -62 128
-62 72 0 104 10 147 47 l40 35 0 -36 c0 -35 1 -36 41 -36 l41 0 -4 198 c-3
185 -4 199 -25 228 -48 68 -180 93 -278 54z m215 -280 c0 -53 -23 -96 -63
-120 -60 -37 -160 -17 -173 35 -16 64 25 102 126 115 111 15 110 15 110 -30z"/>
<path d="M3866 850 c-63 -25 -102 -62 -132 -125 -63 -132 1 -301 131 -351 88
-33 248 0 291 61 14 18 12 22 -18 47 l-32 28 -26 -24 c-14 -13 -35 -29 -47
-35 -30 -15 -97 -14 -136 3 -42 17 -87 70 -87 102 l0 24 195 0 195 0 0 28 c0
50 -30 145 -57 180 -56 74 -177 101 -277 62z m175 -73 c24 -14 59 -77 59 -107
0 -19 -6 -20 -145 -20 -144 0 -145 0 -145 23 0 44 51 99 108 118 33 10 95 3
123 -14z"/>
<path d="M4490 855 c-19 -9 -47 -28 -62 -42 l-28 -27 0 37 0 37 -45 0 -45 0 0
-245 0 -245 44 0 44 0 4 158 c3 170 13 205 63 238 28 18 104 21 134 5 43 -24
51 -59 51 -236 l0 -165 46 0 45 0 -3 199 c-3 218 -5 226 -71 275 -36 26 -129
32 -177 11z"/>
<path d="M411 759 c-85 -34 -58 -163 34 -163 93 0 113 132 24 163 -18 6 -32
11 -33 10 -1 0 -12 -5 -25 -10z"/>
<path d="M1160 763 c-66 -24 -81 -103 -29 -147 34 -29 55 -32 94 -14 96 44 34
197 -65 161z"/>
</g>
</svg>
